<?xml version="1.0" encoding="utf-8"?>
<!-- Generator: Adobe Illustrator 16.0.0, SVG Export Plug-In . SVG Version: 6.00 Build 0)  -->
<!DOCTYPE svg PUBLIC "-//W3C//DTD SVG 1.1//EN" "http://www.w3.org/Graphics/SVG/1.1/DTD/svg11.dtd">
<svg width="763" height="763" xmlns="http://www.w3.org/2000/svg" xmlns:svg="http://www.w3.org/2000/svg" xmlns:xlink="http://www.w3.org/1999/xlink">
  <defs>
    <style type="text/css">
      <![CDATA[

.g0_1{
fill: #FFFFFF;
}
.g1_1{
fill: #292727;
}

]]>
    </style>
    <symbol id="svg_2" viewBox="0 0 184.716 70" xmlns="http://www.w3.org/2000/svg" xmlns:xlink="http://www.w3.org/1999/xlink">
      <path id="svg_1" fill="#5DAFE1" d="m17,16.747c0.528,-0.451 1.209,-0.755 1.918,-0.675c0.897,0.031 1.558,0.7 2.2,1.244c4.847,4.142 9.713,8.256 14.559,12.398c-1.079,1.252 -2.122,2.535 -3.231,3.762c-4.578,-3.889 -9.143,-7.793 -13.729,-11.673c-3.329,2.761 -6.625,5.559 -9.943,8.331c-0.896,0.827 -1.958,1.49 -2.751,2.419c-0.075,5.703 -0.023,11.416 -0.027,17.122c-0.072,0.39 0.372,0.467 0.655,0.436c9.5,-0.005 19.001,-0.009 28.502,0.002c0.017,1.621 0.085,3.248 -0.021,4.866c-0.343,0.065 -0.692,0.084 -1.039,0.092c-10.045,-0.013 -20.092,0 -30.138,-0.007c-0.731,-0.01 -1.519,-0.12 -2.072,-0.648c-0.671,-0.55 -0.871,-1.454 -0.871,-2.283c-0.004,-6.72 0.006,-13.444 -0.006,-20.167c-0.002,-0.842 0.1,-1.785 0.756,-2.39c1.007,-0.95 2.126,-1.773 3.156,-2.697c2.19,-1.858 4.391,-3.705 6.602,-5.538c1.839,-1.519 3.654,-3.063 5.48,-4.594l0,0z"/>
      <path id="svg_6" fill="#5DAFE1" d="m4.426,17.991c0.011,-0.488 0.019,-0.974 0.029,-1.458c2.515,0.004 5.029,0.01 7.543,-0.004c0.013,0.49 0.023,0.983 0.036,1.475c-0.127,0.002 -0.378,0.009 -0.505,0.011c0,1.108 0.005,2.217 -0.008,3.325c-2.211,1.833 -4.411,3.68 -6.602,5.538c-0.015,-2.947 -0.002,-5.895 -0.006,-8.842c-0.121,-0.012 -0.367,-0.035 -0.487,-0.045l0,0z"/>
      <path id="svg_7" fill="#125B78" d="m45.608,33.928c1.771,-1.892 4.433,-2.759 6.982,-2.685c2.342,0.035 4.817,0.521 6.596,2.156c-0.875,0.959 -1.77,1.899 -2.624,2.879c-1.071,-1.01 -2.497,-1.641 -3.982,-1.563c-1.822,-0.115 -3.697,0.797 -4.609,2.398c-0.725,1.188 -0.83,2.636 -0.684,3.99c0.204,1.79 1.423,3.447 3.134,4.063c1.75,0.617 3.759,0.416 5.397,-0.426c0.295,-0.868 0.083,-1.826 0.114,-2.73c-1.008,-0.012 -2.016,-0.006 -3.024,-0.006c-0.016,-1.16 -0.01,-2.319 -0.008,-3.477c2.211,-0.006 4.42,-0.004 6.631,0c0,2.944 0.008,5.889 -0.004,8.836c-2.652,1.33 -5.682,1.816 -8.624,1.519c-2.791,-0.326 -5.465,-2.005 -6.677,-4.586c-1.55,-3.312 -1.186,-7.654 1.382,-10.368l0,0z"/>
      <path id="svg_8" fill="#5DAFE1" d="m172.954,33.696c1.03,-1.458 2.799,-2.207 4.53,-2.401c2.165,-0.214 4.499,0.243 6.176,1.706c-0.872,0.903 -1.675,1.874 -2.576,2.749c-1.199,-1.102 -3.124,-1.417 -4.532,-0.544c-0.821,0.48 -0.896,1.813 -0.1,2.352c1.614,1.08 3.703,1.085 5.313,2.186c1.163,0.73 1.938,2.059 1.885,3.448c0.141,1.787 -0.709,3.618 -2.209,4.613c-1.771,1.19 -4.036,1.34 -6.089,1.001c-1.465,-0.232 -2.795,-0.957 -3.904,-1.926c0.848,-1 1.758,-1.945 2.651,-2.905c1.234,1.437 3.495,2.076 5.162,1.011c0.828,-0.5 0.876,-1.832 0.087,-2.385c-1.365,-0.979 -3.101,-1.143 -4.59,-1.859c-1.131,-0.516 -2.187,-1.393 -2.571,-2.612c-0.423,-1.49 -0.171,-3.187 0.767,-4.434l0,0z"/>
      <path id="svg_9" fill="#125B78" d="m78.418,48.553c0,-5.632 -0.015,-11.261 0.006,-16.89c3.822,0.008 7.643,-0.004 11.464,0.006c0.002,1.155 0.008,2.311 -0.008,3.466c-2.581,0 -5.16,0 -7.74,0c0,1.037 -0.002,2.073 0.004,3.11c2.436,0.002 4.871,0 7.306,0.002c0.006,1.15 0.008,2.297 -0.006,3.448c-2.435,-0.013 -4.869,-0.007 -7.304,-0.005c0,1.142 -0.004,2.282 0.008,3.423c2.72,0.003 5.442,-0.001 8.163,0.003c0.008,1.146 0.01,2.295 -0.006,3.443c-3.964,-0.011 -7.925,0.002 -11.887,-0.006l0,0z"/>
      <path id="svg_10" fill="#125B78" d="m107.077,31.669c4.456,-0.009 8.913,-0.002 13.37,-0.002c0.005,1.102 0.005,2.203 -0.002,3.306c-1.602,0 -3.202,-0.003 -4.802,0.003c-0.009,4.525 0.012,9.051 -0.009,13.577c-1.247,0.001 -2.493,0.004 -3.738,-0.003c-0.006,-4.525 0.002,-9.049 -0.002,-13.573c-1.604,-0.008 -3.208,0 -4.813,-0.007c-0.006,-1.1 -0.006,-2.199 -0.004,-3.301l0,0z"/>
      <path id="svg_11" fill="#5DAFE1" d="m158.658,31.488c2.692,-0.573 5.681,-0.218 7.979,1.371c1.826,1.249 3.035,3.289 3.391,5.461c0.184,1.22 0.179,2.471 -0.016,3.69c-0.399,2.154 -1.607,4.204 -3.465,5.411c-1.959,1.335 -4.42,1.728 -6.745,1.492c-2.521,-0.239 -5.024,-1.513 -6.415,-3.678c-1.139,-1.692 -1.557,-3.778 -1.423,-5.794c0.085,-2.235 1.035,-4.463 2.718,-5.96c1.114,-1.006 2.513,-1.668 3.976,-1.993l0,0zm1.064,3.357c-1.228,0.288 -2.371,1.027 -3.033,2.115c-0.946,1.525 -1.094,3.474 -0.543,5.166c0.484,1.498 1.731,2.74 3.261,3.156c1.517,0.438 3.25,0.279 4.59,-0.588c3.027,-1.956 3.057,-7.076 0.098,-9.106c-1.264,-0.877 -2.896,-1.043 -4.373,-0.743l0,0z"/>
      <path id="svg_12" fill="#125B78" d="m62.668,48.553c-0.004,-5.63 -0.004,-11.259 0,-16.886c2.253,0.004 4.505,-0.015 6.76,0.006c1.681,0.041 3.52,0.326 4.788,1.533c1.54,1.44 1.687,3.883 0.943,5.754c-0.534,1.35 -1.839,2.17 -3.2,2.505c1.437,2.35 2.847,4.714 4.269,7.075c-1.495,0.025 -2.991,0.023 -4.484,0.002c-1.167,-2.246 -2.342,-4.486 -3.516,-6.725c-0.609,-0.002 -1.218,-0.002 -1.824,0c-0.004,2.244 0.004,4.491 -0.004,6.736c-1.247,0.001 -2.489,0.004 -3.732,0l0,0zm3.741,-13.728c-0.01,1.277 -0.015,2.561 0.002,3.84c1.255,-0.004 2.523,0.066 3.767,-0.146c0.547,-0.097 1.122,-0.374 1.353,-0.912c0.353,-0.899 0.114,-2.136 -0.888,-2.491c-1.358,-0.463 -2.828,-0.25 -4.234,-0.291l0,0z"/>
      <path id="svg_13" fill="#5DAFE1" d="m122.474,31.671c2.265,-0.006 4.53,-0.027 6.795,0.008c1.71,0.061 3.605,0.414 4.788,1.765c1.213,1.349 1.299,3.339 0.903,5.026c-0.312,1.31 -1.271,2.436 -2.533,2.92c-1.974,0.77 -4.142,0.594 -6.217,0.613c-0.005,2.184 0.002,4.365 -0.005,6.55c-1.242,0.007 -2.484,0.007 -3.726,0c-0.009,-5.628 0,-11.255 -0.005,-16.882l0,0zm3.74,3.152c-0.009,1.325 -0.004,2.651 -0.006,3.978c1.224,-0.04 2.473,0.122 3.676,-0.163c0.854,-0.182 1.483,-1.014 1.386,-1.891c0.05,-0.837 -0.64,-1.521 -1.409,-1.721c-1.193,-0.288 -2.431,-0.193 -3.647,-0.203l0,0z"/>
      <path id="svg_14" fill="#5DAFE1" d="m137.427,31.671c2.263,-0.011 4.528,-0.018 6.791,0.002c1.684,0.041 3.521,0.348 4.784,1.557c1.67,1.669 1.757,4.541 0.496,6.469c-0.617,0.977 -1.713,1.454 -2.776,1.771c1.415,2.36 2.843,4.714 4.258,7.075c-1.494,0.021 -2.988,0.013 -4.479,0.006c-1.184,-2.244 -2.343,-4.5 -3.54,-6.738c-0.6,0.002 -1.2,0.002 -1.799,0.004c-0.004,2.244 0.002,4.488 -0.002,6.732c-1.243,0.013 -2.485,0.012 -3.727,0.005c-0.01,-5.629 0,-11.256 -0.006,-16.883l0,0zm3.74,3.152c-0.01,1.279 -0.015,2.561 0.005,3.842c1.311,-0.01 2.641,0.084 3.933,-0.189c0.794,-0.145 1.414,-0.905 1.333,-1.72c0.07,-0.844 -0.595,-1.579 -1.389,-1.754c-1.274,-0.283 -2.589,-0.157 -3.882,-0.179l0,0z"/>
      <path id="svg_15" fill="#125B78" d="m98.734,31.679c1.041,-0.022 2.082,-0.019 3.123,-0.008c2.442,5.627 4.902,11.248 7.34,16.877c-1.411,0.006 -2.82,0.021 -4.229,-0.01c-0.463,-1.193 -0.964,-2.369 -1.436,-3.559c-2.18,-0.008 -4.359,-0.001 -6.541,-0.003c-0.47,1.187 -0.948,2.371 -1.396,3.567c-1.378,0.017 -2.756,0.02 -4.131,-0.002c2.41,-5.626 4.879,-11.228 7.27,-16.862l0,0zm-0.565,10.136c1.357,0.004 2.714,0.007 4.073,0c-0.665,-1.736 -1.343,-3.47 -2.054,-5.188c-0.667,1.733 -1.358,3.456 -2.019,5.188l0,0z"/>
      <path id="svg_16" fill="#5DAFE1" d="m24.151,39.728c2.167,-0.068 4.338,0.021 6.501,-0.158c0.945,0.013 1.92,-0.143 2.843,0.117c0.924,0.305 1.695,1.201 1.666,2.207c0.019,2.88 -0.002,5.76 0.006,8.64c-1.633,-0.005 -3.266,-0.005 -4.897,0c0,-1.995 -0.002,-3.992 0,-5.989c-1.999,-0.012 -3.992,0.129 -5.991,0.127c-0.011,-1.651 -0.043,-3.298 -0.128,-4.944l0,0z"/>
    </symbol>
  </defs>
  <g>
    <title>Layer 1</title>
    <rect fill="#eeeeee" stroke-width="null" stroke-dasharray="null" stroke-linejoin="null" stroke-linecap="null" x="-5.044445" y="-12.399985" width="793.600002" height="776.711081" id="svg_5" stroke="#3f3f3f"/>
    <use id="svg_3" xlink:href="#svg_2" transform="matrix(0.9454587627187506,0,0,0.9454587627187506,26.883758318074925,72.96138298767156) " y="-71.453438" x="2.23292"/>
    <g id="svg_4"/>
  </g>
</svg>
